HIERARCHY
ROOT Hips
{
	OFFSET	0.00	0.00	0.00
	CHANNELS 6 Xposition Yposition Zposition Zrotation Xrotation Yrotation
	JOINT LeftUpLeg
	{
		OFFSET	 0.126116	-0.014019	-0.065224
		CHANNELS 3 Zrotation Xrotation Yrotation
		JOINT LeftLeg
		{
			OFFSET	 0.000000	 0.000000	 0.569914
			CHANNELS 3 Zrotation Xrotation Yrotation
			JOINT LeftFoot
			{
				OFFSET	 0.000000	 0.000000	 0.544423
				CHANNELS 3 Zrotation Xrotation Yrotation
				JOINT LeftToeBase
				{
					OFFSET	 0.000000	 0.000000	 0.207117
					CHANNELS 3 Zrotation Xrotation Yrotation
					End Site
					{
						OFFSET	 0.000000	 0.000000	 0.207117
					}
				}
			}
		}
	}
	JOINT RightUpLeg
	{
		OFFSET	-0.124023	-0.008373	-0.065224
		CHANNELS 3 Zrotation Xrotation Yrotation
		JOINT RightLeg
		{
			OFFSET	 0.000000	 0.000000	 0.570047
			CHANNELS 3 Zrotation Xrotation Yrotation
			JOINT RightFoot
			{
				OFFSET	 0.000000	 0.000000	 0.544354
				CHANNELS 3 Zrotation Xrotation Yrotation
				JOINT RightToeBase
				{
					OFFSET	 0.000000	 0.000000	 0.207540
					CHANNELS 3 Zrotation Xrotation Yrotation
					End Site
					{
						OFFSET	 0.000000	 0.000000	 0.207540
					}
				}
			}
		}
	}
	JOINT Spine
	{
		OFFSET	 0.000184	-0.007763	 0.117403
		CHANNELS 3 Zrotation Xrotation Yrotation
		JOINT Spine1
		{
			OFFSET	 0.000000	 0.000000	 0.137269
			CHANNELS 3 Zrotation Xrotation Yrotation
			JOINT Spine2
			{
				OFFSET	 0.000000	 0.000000	 0.156879
				CHANNELS 3 Zrotation Xrotation Yrotation
				JOINT LeftShoulder
				{
					OFFSET	 0.080501	-0.002496	 0.160144
					CHANNELS 3 Zrotation Xrotation Yrotation
					JOINT LeftArm
					{
						OFFSET	 0.000000	 0.000000	 0.164363
						CHANNELS 3 Zrotation Xrotation Yrotation
						JOINT LeftForeArm
						{
							OFFSET	 0.000000	 0.000000	 0.364576
							CHANNELS 3 Zrotation Xrotation Yrotation
							JOINT LeftHand
							{
								OFFSET	 0.000000	 0.000000	 0.360812
								CHANNELS 3 Zrotation Xrotation Yrotation
								JOINT LeftHandIndex1
								{
									OFFSET	 0.000000	 0.000000	 0.086006
									CHANNELS 3 Zrotation Xrotation Yrotation
									JOINT LeftHandIndex2
									{
										OFFSET	 0.000000	 0.000000	 0.047236
										CHANNELS 3 Zrotation Xrotation Yrotation
										JOINT LeftHandIndex3
										{
											OFFSET	-0.004284	-0.000551	 0.038166
											CHANNELS 3 Zrotation Xrotation Yrotation
											End Site
											{
												OFFSET	-0.004284	-0.000551	 0.038166
											}
										}
									}
								}
							}
						}
					}
				}
				JOINT Neck
				{
					OFFSET	 0.000000	 0.000000	 0.176489
					CHANNELS 3 Zrotation Xrotation Yrotation
					JOINT Head
					{
						OFFSET	 0.000000	-0.001747	 0.077940
						CHANNELS 3 Zrotation Xrotation Yrotation
						End Site
						{
							OFFSET	 0.000000	-0.001747	 0.077940
						}
					}
				}
				JOINT RightShoulder
				{
					OFFSET	-0.080363	 0.000306	 0.159706
					CHANNELS 3 Zrotation Xrotation Yrotation
					JOINT RightArm
					{
						OFFSET	 0.000000	 0.000000	 0.164196
						CHANNELS 3 Zrotation Xrotation Yrotation
						JOINT RightForeArm
						{
							OFFSET	 0.000000	 0.000000	 0.365611
							CHANNELS 3 Zrotation Xrotation Yrotation
							JOINT RightHand
							{
								OFFSET	 0.000000	 0.000000	 0.360648
								CHANNELS 3 Zrotation Xrotation Yrotation
								JOINT RightHandIndex1
								{
									OFFSET	 0.000000	 0.000000	 0.069977
									CHANNELS 3 Zrotation Xrotation Yrotation
									JOINT RightHandIndex2
									{
										OFFSET	 0.000000	 0.000000	 0.052305
										CHANNELS 3 Zrotation Xrotation Yrotation
										JOINT RightHandIndex3
										{
											OFFSET	 0.009002	-0.000782	 0.042196
											CHANNELS 3 Zrotation Xrotation Yrotation
											End Site
											{
												OFFSET	 0.009002	-0.000782	 0.042196
											}
										}
									}
								}
							}
						}
					}
				}
			}
		}
	}
}
MOTION
Frames:    12
Frame Time: 0.03333334
-0.026829	 0.259534	 1.052862	 3.038175	 32.606410	-8.392992	 53.129670	-72.645240	-135.642200	 4.984766	-65.430740	 4.914786	 63.800820	 72.338230	-75.012190	-2.385832	 28.452790	-0.000001	 27.081870	-81.640430	-147.688800	-14.733480	-70.197160	-9.029879	-26.846550	 75.694960	 51.842800	 2.384659	 28.388700	-0.000001	 10.815560	 13.703010	 0.710593	-1.559236	 16.936110	 0.978107	-4.883430	-0.520041	 4.203846	-99.198900	 68.206300	 156.672700	 3.046830	-9.219830	-46.990620	 2.630169	-0.994022	-5.791587	-28.676590	-32.679260	-20.126620	-2.027600	 6.559038	 9.033609	-5.188889	 0.308190	 3.541030	-5.234859	 0.342567	 0.430617	 0.486769	 18.279530	-6.339125	-3.509682	-29.134540	-2.454500	 97.496460	 64.646320	-159.192000	-12.008310	 6.399719	 54.746130	-16.323810	-5.683601	 32.537530	 11.634980	-31.828880	 14.981410	 1.803333	 3.979147	-15.098590	 4.898592	 3.004813	-9.310344	 5.224449	 0.395017	 2.014677
-0.025011	 0.258135	 1.062150	 2.938538	 31.968320	-8.124545	 49.978490	-71.378470	-138.966600	 4.506279	-63.996620	 4.426568	 62.735650	 72.188370	-73.579700	-2.385832	 28.452790	-0.000001	 19.479810	-80.324920	-154.887300	-14.225010	-68.753760	-8.470938	-26.017370	 75.495000	 50.835390	 2.384659	 28.388700	-0.000001	 7.984179	 13.444620	 0.597164	-1.410357	 16.632330	 0.839938	-5.039150	-0.757083	 4.078389	-99.089460	 68.192670	 157.028800	 3.363698	-8.068989	-47.156860	 4.389316	-1.338630	-6.539942	-28.477880	-34.189480	-20.059160	-2.027600	 6.559038	 9.033609	-5.188889	 0.308190	 3.541030	-5.234859	 0.342567	 0.430617	 0.164775	 16.555110	-5.518131	-3.931206	-27.380320	-2.895105	 97.408610	 64.589740	-159.488800	-12.739440	 6.563292	 53.705070	-17.134540	-6.854730	 34.904350	 11.311630	-33.324820	 15.305540	 1.803333	 3.979147	-15.098590	 4.898592	 3.004813	-9.310344	 5.224449	 0.395017	 2.014677
-0.023150	 0.256358	 1.071818	 2.908447	 31.321390	-7.866831	 47.023610	-70.026790	-142.041400	 4.155110	-62.461570	 4.055525	 61.341010	 72.002630	-71.873020	-2.385832	 28.452790	-0.000001	 13.342210	-78.835230	-160.542900	-13.766630	-67.229710	-7.957476	-25.066640	 75.273740	 49.680400	 2.384659	 28.388700	-0.000001	 5.078364	 13.145920	 0.482976	-1.249316	 16.402760	 0.676059	-5.220557	-1.063227	 3.936847	-98.872610	 68.376870	 157.420000	 3.692979	-6.744125	-47.477870	 6.156875	-1.720471	-7.265498	-28.354910	-35.757650	-20.101430	-2.027600	 6.559038	 9.033609	-5.188889	 0.308190	 3.541030	-5.234859	 0.342567	 0.430617	-0.125504	 14.445300	-4.884213	-4.254086	-25.244940	-3.138948	 97.290310	 64.418460	-159.970300	-13.550800	 6.516978	 52.802130	-17.861910	-8.133005	 37.342610	 10.794720	-34.674980	 15.613160	 1.803333	 3.979147	-15.098590	 4.898592	 3.004813	-9.310344	 5.224449	 0.395017	 2.014677
-0.020970	 0.254000	 1.083029	 2.910689	 30.595400	-7.578973	 44.007730	-68.410220	-145.166600	 3.833270	-60.633230	 3.705336	 59.586260	 71.763350	-69.773480	-2.385832	 28.452790	-0.000001	 7.953988	-76.993370	-165.352800	-13.299060	-65.417520	-7.422483	-23.896950	 74.986900	 48.279640	 2.384659	 28.388700	-0.000001	 1.779115	 12.778090	 0.354432	-1.066255	 16.120470	 0.504674	-5.438776	-1.409295	 3.760192	-98.582360	 68.674770	 157.876400	 4.068758	-5.157060	-47.885030	 8.102291	-2.185166	-8.037787	-28.253690	-37.527410	-20.185020	-2.027600	 6.559038	 9.033609	-5.188889	 0.308190	 3.541030	-5.234859	 0.342567	 0.430617	-0.419377	 11.901860	-4.271355	-4.555051	-22.677730	-3.301969	 97.140450	 64.174100	-160.592100	-14.513260	 6.375111	 51.815530	-18.527990	-9.659488	 40.151360	 10.150630	-36.089150	 15.932190	 1.803333	 3.979147	-15.098590	 4.898592	 3.004813	-9.310344	 5.224449	 0.395017	 2.014677
-0.019092	 0.251711	 1.092873	 2.893663	 29.932720	-7.304534	 41.645060	-66.914840	-147.662600	 3.583967	-59.000030	 3.430584	 58.059480	 71.567600	-67.928450	-2.385832	 28.452790	-0.000001	 4.180840	-75.261820	-168.626700	-12.955670	-63.778100	-7.014184	-22.878530	 74.728950	 47.055930	 2.384659	 28.388700	-0.000001	-1.123151	 12.442380	 0.251018	-0.924018	 15.887560	 0.388388	-5.628655	-1.762342	 3.579646	-98.261640	 69.067310	 158.294000	 4.438726	-3.656966	-48.259940	 9.768003	-2.617313	-8.675124	-28.230260	-39.055040	-20.353700	-2.027600	 6.559038	 9.033609	-5.188889	 0.308190	 3.541030	-5.234859	 0.342567	 0.430617	-0.646495	 9.457603	-3.718376	-4.815977	-20.231470	-3.453021	 96.992880	 64.077960	-161.066500	-15.362980	 6.468965	 50.963590	-19.076510	-11.102330	 42.562680	 9.547935	-37.266700	 16.095010	 1.803333	 3.979147	-15.098590	 4.898592	 3.004813	-9.310344	 5.224449	 0.395017	 2.014677
-0.017373	 0.249246	 1.102582	 2.837169	 29.206710	-6.997494	 39.493940	-65.337010	-150.015600	 3.366114	-57.372830	 3.187086	 56.550800	 71.414050	-66.097760	-2.385833	 28.452760	 0.000004	 0.977463	-73.417930	-171.341900	-12.691250	-62.117370	-6.677476	-21.922440	 74.486430	 45.876950	 2.384659	 28.388700	-0.000001	-4.053329	 12.103110	 0.169698	-0.807546	 15.744000	 0.306591	-5.816018	-2.240265	 3.360634	-97.813350	 69.704640	 158.745200	 4.872723	-1.943261	-48.718390	 11.426190	-3.072589	-9.280282	-28.337940	-40.572730	-20.727820	-2.027600	 6.559038	 9.033609	-5.188889	 0.308190	 3.541030	-5.234859	 0.342567	 0.430617	-0.835833	 6.598400	-3.115098	-5.092349	-17.401760	-3.641529	 96.820210	 64.197400	-161.420900	-16.207400	 6.957300	 50.167220	-19.698820	-12.702070	 44.858480	 8.826827	-38.380200	 16.068490	 1.803333	 3.979147	-15.098590	 4.898592	 3.004813	-9.310344	 5.224449	 0.395017	 2.014677
-0.015914	 0.246571	 1.111969	 2.764854	 28.470460	-6.708915	 37.572590	-63.730090	-152.152100	 3.174286	-55.763740	 2.969855	 54.979030	 71.297980	-64.207580	-2.385833	 28.452760	 0.000004	-1.616909	-71.546710	-173.462000	-12.467160	-60.476160	-6.378684	-21.103430	 74.223010	 44.836770	 2.384659	 28.388700	-0.000001	-6.904069	 11.772450	 0.120046	-0.674996	 15.562960	 0.267531	-6.007132	-2.694760	 3.121542	-97.366360	 70.343450	 159.194100	 5.293359	-0.236258	-49.206960	 13.018910	-3.539371	-9.846491	-28.455440	-42.048100	-21.096060	-2.027600	 6.559038	 9.033609	-5.188889	 0.308190	 3.541030	-5.234859	 0.342567	 0.430617	-0.993973	 3.745308	-2.525641	-5.342158	-14.581000	-3.799492	 96.649000	 64.317020	-161.775600	-17.013880	 7.437750	 49.414350	-20.191320	-14.306940	 47.070290	 8.109891	-39.435550	 16.019640	 1.803333	 3.979147	-15.098590	 4.898592	 3.004813	-9.310344	 5.224449	 0.395017	 2.014677
-0.014705	 0.243976	 1.121035	 2.661295	 27.700340	-6.381963	 35.829350	-62.119770	-154.166900	 3.110554	-54.177990	 2.861146	 53.342780	 71.204260	-62.338660	-2.385833	 28.452760	 0.000004	-3.950538	-69.639580	-175.340900	-12.359830	-58.822810	-6.180432	-20.417950	 73.979580	 43.950120	 2.384659	 28.388700	-0.000001	-9.655585	 11.475270	 0.092494	-0.504026	 15.534160	 0.143880	-6.177288	-3.257566	 2.930186	-96.602560	 71.602290	 159.610100	 5.742034	 1.914655	-50.142650	 14.587480	-4.014195	-10.373220	-28.668540	-43.522480	-21.417360	-2.027600	 6.559038	 9.033609	-5.188889	 0.308190	 3.541030	-5.234859	 0.342567	 0.430617	-1.128382	 0.693686	-2.333340	-5.475259	-11.588480	-3.609281	 96.263340	 65.035160	-162.299900	-17.748740	 8.495162	 49.331060	-20.707010	-15.957560	 49.042200	 7.530648	-40.801730	 15.892830	 1.803333	 3.979147	-15.098590	 4.898592	 3.004813	-9.310344	 5.224449	 0.395017	 2.014677
-0.013529	 0.240738	 1.131260	 2.535136	 26.829180	-6.020250	 34.050280	-60.248170	-156.268300	 3.064297	-52.333670	 2.756639	 51.330780	 71.101170	-60.076770	-2.385833	 28.452760	 0.000004	-6.188346	-67.431340	-177.071200	-12.265400	-56.896930	-5.972764	-19.726330	 73.659420	 43.046670	 2.384659	 28.388700	-0.000001	-12.639090	 11.129520	 0.089196	-0.277156	 15.471410	 0.014017	-6.371604	-3.884016	 2.708617	-95.644490	 73.144840	 160.037500	 6.267688	 4.445667	-51.341380	 16.298200	-4.556928	-10.924170	-28.925220	-45.145340	-21.772380	-2.027600	 6.559038	 9.033609	-5.188889	 0.308190	 3.541030	-5.234859	 0.342567	 0.430617	-1.271988	-2.806026	-2.192451	-5.613349	-8.164902	-3.319515	 95.775490	 65.975540	-162.809600	-18.539840	 9.831813	 49.223650	-21.145260	-17.850670	 51.287290	 6.865630	-42.348420	 15.699860	 1.803333	 3.979147	-15.098590	 4.898592	 3.004813	-9.310344	 5.224449	 0.395017	 2.014677
-0.012651	 0.237626	 1.139894	 2.452479	 26.035550	-5.702244	 32.596520	-58.584470	-158.003800	 3.073517	-50.746660	 2.703881	 49.462650	 71.004870	-58.016590	-2.385833	 28.452750	 0.000004	-7.876301	-65.448130	-178.305900	-11.916610	-55.250410	-5.571265	-19.386370	 73.429370	 42.351350	 2.384659	 28.388700	-0.000001	-15.120380	 10.834430	 0.091532	-0.077441	 15.461800	-0.133821	-6.537862	-4.476244	 2.537272	-94.767550	 74.483410	 160.404300	 6.830236	 6.534604	-52.469880	 17.739870	-5.027536	-11.364080	-29.013620	-46.469440	-22.068390	-2.027600	 6.559038	 9.033609	-5.188889	 0.308190	 3.541030	-5.234859	 0.342567	 0.430617	-1.391585	-6.045511	-2.226128	-5.726157	-5.034074	-2.958578	 95.337300	 66.835520	-163.259500	-19.260780	 10.963100	 49.244350	-21.399240	-19.454620	 53.160400	 6.206741	-43.625760	 15.382090	 1.803333	 3.979147	-15.098590	 4.898592	 3.004813	-9.310344	 5.224449	 0.395017	 2.014677
-0.011899	 0.234323	 1.147995	 2.398914	 25.201630	-5.372760	 31.234490	-56.921280	-159.656200	 3.128948	-49.252080	 2.687485	 47.598250	 70.916000	-55.983680	-2.385833	 28.452750	 0.000004	-9.352530	-63.431160	-179.324500	-11.358350	-53.692060	-5.012852	-19.240810	 73.294470	 41.679870	 2.384659	 28.388700	-0.000001	-17.469550	 10.563380	 0.086474	 0.111754	 15.507250	-0.313172	-6.699171	-5.112529	 2.386554	-93.851650	 75.807480	 160.757800	 7.484260	 8.485431	-53.659210	 19.126340	-5.488213	-11.764760	-28.970500	-47.694030	-22.346080	-2.027600	 6.559038	 9.033609	-5.188889	 0.308190	 3.541030	-5.234859	 0.342567	 0.430617	-1.518523	-9.439782	-2.407048	-5.845358	-1.787356	-2.499496	 94.889480	 67.727620	-163.711500	-20.021590	 12.061690	 49.457730	-21.576720	-20.970520	 54.851350	 5.469791	-44.819490	 14.923240	 1.803333	 3.979147	-15.098590	 4.898592	 3.004813	-9.310344	 5.224449	 0.395017	 2.014677
-0.011253	 0.230836	 1.155578	 2.350472	 24.323390	-5.019638	 29.849930	-55.275410	-161.345600	 3.120253	-47.869980	 2.682191	 45.834820	 70.866960	-54.041590	-2.385833	 28.452750	 0.000004	-10.668220	-61.368160	 179.817600	-10.851120	-52.206280	-4.513696	-19.096550	 73.228070	 41.000380	 2.384659	 28.388700	-0.000001	-19.729150	 10.316530	 0.068661	 0.295684	 15.538480	-0.473727	-6.866653	-5.748606	 2.218570	-92.866310	 77.150560	 161.060000	 8.157273	 10.449600	-54.878630	 20.474370	-5.947369	-12.136900	-28.908950	-48.875000	-22.623240	-2.027600	 6.559038	 9.033609	-5.188889	 0.308190	 3.541030	-5.234859	 0.342567	 0.430617	-1.660066	-12.884040	-2.598286	-5.992467	 1.503381	-2.020268	 94.434440	 68.637990	-164.171800	-20.823640	 13.198620	 49.896190	-21.740930	-22.425820	 56.329890	 4.674314	-45.956910	 14.419060	 1.803333	 3.979147	-15.098590	 4.898592	 3.004813	-9.310344	 5.224449	 0.395017	 2.014677
